<svg width="431" height="277" viewBox="0 0 431 277" fill="none" xmlns="http://www.w3.org/2000/svg">
<g clip-path="url(#clip0_22_580)">
<path d="M250.042 54.1313C250.042 54.2208 249.942 54.3104 249.942 54.3999L249.142 55.5641L189.156 148.609L173.26 173.236L163.362 188.549L147.466 213.176L139.868 224.997L123.971 249.624L121.472 253.475L106.675 276.489H106.375L92.2786 259.564L90.8789 257.952C89.8791 256.34 89.7791 254.281 90.6789 252.4C90.7789 252.221 90.8789 252.042 90.8789 251.952C90.9789 251.773 91.0788 251.594 91.1788 251.415L103.576 232.161L108.175 225.086L115.773 213.266L131.669 188.639L141.567 173.325L157.463 148.698L236.045 26.7283L249.642 47.8626C250.842 49.6536 251.042 51.982 250.042 54.1313Z" fill="url(#paint0_linear_22_580)"/>
<path d="M431 276.4H403.506C402.507 276.4 401.607 276.221 400.707 275.863C399.507 275.415 398.508 274.698 397.808 273.892L396.608 272.101L381.911 249.534L366.015 224.907L358.417 213.086L342.521 188.46L332.623 173.146L316.926 148.609L253.041 49.5641L239.644 28.6984L239.045 27.7133C238.245 26.1909 238.145 24.3104 238.945 22.5193C239.045 22.3402 239.045 22.2506 239.144 22.0715C239.244 21.8924 239.344 21.8029 239.444 21.6238L253.041 0.399902L268.838 24.9372L348.519 148.609L364.415 173.236L374.313 188.549L390.209 213.176L397.808 224.997L413.704 249.624L431 276.4Z" fill="url(#paint1_linear_22_580)"/>
<path d="M294.732 237.266C294.732 244.072 288.633 249.534 281.035 249.534H223.848C216.25 249.534 210.151 244.072 210.151 237.266C210.151 230.46 216.25 224.997 223.848 224.997H280.935C288.533 224.907 294.732 230.46 294.732 237.266Z" fill="#E06881"/>
<path d="M100.377 234.042C100.177 234.4 100.077 234.758 99.7768 235.027L87.6796 253.833L0 148.609H30.5929C31.5927 148.609 32.4925 148.788 33.3923 149.146C34.492 149.594 35.3918 150.221 36.1916 150.937L36.2916 151.027L36.7915 151.654L99.4769 226.878C101.077 228.848 101.576 231.534 100.377 234.042Z" fill="url(#paint2_linear_22_580)"/>
<path d="M294.732 160.967C294.732 167.773 288.633 173.236 281.035 173.236H223.848C216.25 173.236 210.151 167.773 210.151 160.967C210.151 154.161 216.25 148.698 223.848 148.698H280.935C288.533 148.609 294.732 154.161 294.732 160.967Z" fill="#E06881"/>
<path d="M294.732 200.818C294.732 207.624 288.633 213.087 281.035 213.087H223.848C216.25 213.087 210.151 207.624 210.151 200.818C210.151 194.012 216.25 188.549 223.848 188.549H280.935C288.533 188.549 294.732 194.012 294.732 200.818Z" fill="#E06881"/>
</g>
<defs>
<linearGradient id="paint0_linear_22_580" x1="90.0621" y1="151.609" x2="261.056" y2="151.609" gradientUnits="userSpaceOnUse">
<stop stop-color="#1E999F"/>
<stop offset="1" stop-color="#065289"/>
</linearGradient>
<linearGradient id="paint1_linear_22_580" x1="430.999" y1="105.31" x2="158.941" y2="289.48" gradientUnits="userSpaceOnUse">
<stop stop-color="#6D28A1"/>
<stop offset="1" stop-color="#0B0F60"/>
</linearGradient>
<linearGradient id="paint2_linear_22_580" x1="25.8939" y1="253.833" x2="-29.0029" y2="130.501" gradientUnits="userSpaceOnUse">
<stop stop-color="#6D28A1"/>
<stop offset="1" stop-color="#0B0F60"/>
</linearGradient>
<clipPath id="clip0_22_580">
<rect width="431" height="276" fill="white" transform="translate(0 0.399902)"/>
</clipPath>
</defs>
</svg>
