<svg width="432" height="309" viewBox="0 0 432 309" fill="none" xmlns="http://www.w3.org/2000/svg">
<g clip-path="url(#clip0_22_569)">
<path d="M250.1 60.3999C250.1 60.4999 250 60.5999 250 60.6999L249.2 61.9999L189.2 165.9L173.3 193.4L163.4 210.5L147.5 238L139.9 251.2L124 278.7L121.5 283L106.7 308.7H106.4L92.2999 289.8L90.8999 288C89.8999 286.2 89.7999 283.9 90.6999 281.8C90.7999 281.6 90.8999 281.4 90.8999 281.3C90.9999 281.1 91.0999 280.9 91.1999 280.7L103.6 259.2L108.2 251.3L115.8 238.1L131.7 210.6L141.6 193.5L157.5 166L236.1 29.7999L249.7 53.3999C250.9 55.3999 251.1 57.9999 250.1 60.3999Z" fill="url(#paint0_linear_22_569)"/>
<path d="M431.1 308.6H403.6C402.6 308.6 401.7 308.4 400.8 308C399.6 307.5 398.6 306.7 397.9 305.8L396.7 303.8L382 278.6L366.1 251.1L358.5 237.9L342.6 210.4L332.7 193.3L317 165.9L253.1 55.2999L239.7 31.9999L239.1 30.8999C238.3 29.1999 238.2 27.0999 239 25.0999C239.1 24.8999 239.1 24.7999 239.2 24.5999C239.3 24.3999 239.4 24.2999 239.5 24.0999L253.1 0.399902L268.9 27.7999L348.6 165.9L364.5 193.4L374.4 210.5L390.3 238L397.9 251.2L413.8 278.7L431.1 308.6Z" fill="url(#paint1_linear_22_569)"/>
<path d="M100.4 261.3C100.2 261.7 100.1 262.1 99.8 262.4L87.7 283.4L0 165.9H30.6C31.6 165.9 32.5 166.1 33.4 166.5C34.5 167 35.4 167.7 36.2 168.5L36.3 168.6L36.8 169.3L99.5 253.3C101.1 255.5 101.6 258.5 100.4 261.3Z" fill="url(#paint2_linear_22_569)"/>
<path d="M294.8 264.9C294.8 272.5 288.7 278.6 281.1 278.6H223.9C216.3 278.6 210.2 272.5 210.2 264.9C210.2 257.3 216.3 251.2 223.9 251.2H281C288.6 251.1 294.8 257.3 294.8 264.9Z" fill="#E06881"/>
<path d="M294.8 179.7C294.8 187.3 288.7 193.4 281.1 193.4H223.9C216.3 193.4 210.2 187.3 210.2 179.7C210.2 172.1 216.3 166 223.9 166H281C288.6 165.9 294.8 172.1 294.8 179.7Z" fill="#E06881"/>
<path d="M294.8 224.2C294.8 231.8 288.7 237.9 281.1 237.9H223.9C216.3 237.9 210.2 231.8 210.2 224.2C210.2 216.6 216.3 210.5 223.9 210.5H281C288.6 210.5 294.8 216.6 294.8 224.2Z" fill="#E06881"/>
</g>
<defs>
<linearGradient id="paint0_linear_22_569" x1="90.083" y1="169.25" x2="261.116" y2="169.25" gradientUnits="userSpaceOnUse">
<stop stop-color="#1E999F"/>
<stop offset="1" stop-color="#065289"/>
</linearGradient>
<linearGradient id="paint1_linear_22_569" x1="431.099" y1="117.55" x2="140.955" y2="293.483" gradientUnits="userSpaceOnUse">
<stop stop-color="#6D28A1"/>
<stop offset="1" stop-color="#0B0F60"/>
</linearGradient>
<linearGradient id="paint2_linear_22_569" x1="25.8999" y1="283.4" x2="-39.8584" y2="151.071" gradientUnits="userSpaceOnUse">
<stop stop-color="#6D28A1"/>
<stop offset="1" stop-color="#0B0F60"/>
</linearGradient>
<clipPath id="clip0_22_569">
<rect width="431.1" height="308.2" fill="white" transform="translate(0 0.399902)"/>
</clipPath>
</defs>
</svg>
